<svg width="100%" height="100%" viewBox="0 0 531 412" version="1.1" xmlns="http://www.w3.org/2000/svg" xmlns:xlink="http://www.w3.org/1999/xlink" xml:space="preserve" xmlns:serif="http://www.serif.com/" style="fill-rule:evenodd;clip-rule:evenodd;stroke-linecap:round;stroke-linejoin:round;stroke-miterlimit:1.5;">
	<path 
		stroke-dasharray="459.3774719238281" 
		stroke-dashoffset="459.3774719238281" 
		d="M23.552,113.66C48.168,89.14 51.964,84.009 79.03,73.872C125.619,56.424 140.271,93.766 94.989,142.961C59.099,181.951 48.032,180.58 45.847,184.206C37.188,198.575 41.051,208.168 41.835,210.113C20.398,184.69 38.042,181.432 62.147,117.707C75.159,83.307 84.745,86.034 83.299,66.833C82.293,53.489 68.574,49.472 68.293,49.32" 
		style="fill:none;stroke-width:26.67px;"/>
	<path 
		stroke-dasharray="240.14002990722656" 
		stroke-dashoffset="240.14002990722656" 
		d="M185.118,85.589C189.573,90.01 215.479,107.848 201.079,136.336C191.435,155.416 136.457,183.085 137.326,125.974C137.73,99.4 179.754,91.677 202.678,75.733" 
		style="fill:none;stroke-width:26.67px;"/>
	<path 
		stroke-dasharray="390.72589111328125" 
		stroke-dashoffset="390.72589111328125" 
		d="M195.675,92.465C185.874,61.499 181.332,61.745 165.43,52.034C173.619,50.277 203.391,43.888 268.615,34.352C273.681,40.711 267.114,47.618 263.446,61.091C255.035,91.985 230.757,166.603 227.606,174.757C211.391,216.723 202.182,214.306 200.718,255.345" 
		style="fill:none;stroke-width:26.67px;"/>
	<path 
		stroke-dasharray="517.1118774414062" 
		stroke-dashoffset="517.1118774414062" 
		d="M321.937,89.363C315.856,80.175 316.756,79.606 309.064,71.787C302.052,64.66 301.262,65.613 294.631,58.141C310.165,36.288 357.673,43.83 365.578,64.492C383.147,110.414 307.102,130.066 299.805,131.952C370.449,116.201 374.983,128.63 378.429,135.056C407.326,188.944 289.254,245.973 269.862,265.647C266.631,268.926 266.926,268.958 262.665,274.349C260.673,276.869 260.535,276.616 255.893,280.633" 
		style="fill:none;stroke-width:26.67px;"/>
	<path 
		stroke-dasharray="455.28826904296875" 
		stroke-dashoffset="455.28826904296875" 
		d="M428.617,116.083C424.969,86.316 420.334,74.46 441.417,75.489C478.542,77.301 536.227,121.382 461.249,193.246C453.309,200.857 450.247,197.232 358.536,284.636C375.676,333.819 382.773,329.845 414.229,371.399" 
		style="fill:none;stroke-width:26.67px;"/>
	<style>
		path:nth-child(1) { animation-delay: 0.0s; }
		path:nth-child(2) { animation-delay: 0.2s; }
		path:nth-child(3) { animation-delay: 0.4s; }
		path:nth-child(4) { animation-delay: 0.6s; }
		path:nth-child(5) { animation-delay: 0.8s; }

		path {
			stroke: white;
			animation: draw 0.5s cubic-bezier(0.25, 0.46, 0.45, 0.94) forwards;
		}

		@keyframes draw {
			to {
				stroke-dashoffset: 0;
			}
		}
	</style>
</svg>